<svg id="レイヤー_1" xmlns="http://www.w3.org/2000/svg" viewBox="0 0 51.7 51.7"><style>.st0{fill:#323232}.st1{fill:#b8d200}</style><title>アセット 2</title><circle class="st0" cx="25.9" cy="25.9" r="25"/><path class="st1" d="M9.8 16.6c-5.1 8.9-2.1 20.2 6.8 25.3s20.2 2.1 25.3-6.8S44 15 35.1 9.8c-8.8-5.1-20.2-2.1-25.3 6.8zm23.3-3.3c1.5.9 2.9 2 4 3.4l-6.9 4c-.3-.3-.6-.5-1-.7-2.5-1.5-5.7-1.1-7.9.8l-6.9-4c4.6-5.6 12.5-7.1 18.7-3.5zm-9.3 16.2c-2-1.2-2.7-3.7-1.6-5.7 1.2-2 3.7-2.7 5.7-1.6 2 1.2 2.7 3.7 1.6 5.7s-3.7 2.8-5.7 1.6zm-11.6-8.8l6.9 4c-.6 3.3 1.4 6.6 4.6 7.7v7.9c-8-1.2-13.4-8.6-12.2-16.6.1-1 .4-2 .7-3zm26.3 12.4c-2.2 3.8-5.9 6.4-10.3 7.1v-8c3.2-1.2 5.1-4.5 4.3-7.9v.1l6.8-3.9c1.7 4.1 1.4 8.8-.8 12.6z"/></svg>